<svg version="1.1" id="Layer_1" xmlns="http://www.w3.org/2000/svg" xmlns:xlink="http://www.w3.org/1999/xlink" x="0px" y="0px"
	 width="100%" viewBox="0 0 128 128" enable-background="new 0 0 128 128" xml:space="preserve">
<path fill="#E05829" opacity="1.000000" stroke="none" 
	d="
M1.000000,52.000000 
	C1.000000,34.666668 1.000000,17.833334 1.000000,1.000000 
	C43.666668,1.000000 86.333336,1.000000 129.000000,1.000000 
	C129.000000,43.666668 129.000000,86.333336 129.000000,129.000000 
	C86.333336,129.000000 43.666668,129.000000 1.000000,129.000000 
	C1.000000,103.500000 1.000000,78.000000 1.000000,52.000000 
M29.977884,84.345039 
	C29.979189,67.678482 29.898848,51.011360 30.013420,34.345581 
	C30.078739,24.844248 35.824989,19.529648 45.219814,19.889101 
	C53.894600,20.221008 58.965359,25.678654 59.101952,35.436787 
	C59.283886,48.434124 59.151669,61.435856 59.154243,74.435699 
	C59.154663,76.537125 59.154301,78.638542 59.154301,80.547729 
	C63.827770,80.547729 67.864975,80.547729 72.209335,80.547729 
	C72.209335,67.248047 72.166977,54.100574 72.238922,40.953732 
	C72.257065,37.638039 72.356125,34.275349 72.916443,31.020052 
	C74.042725,24.476646 78.620323,20.530346 85.208328,19.953558 
	C95.599686,19.043777 101.785027,24.995802 101.849167,36.265369 
	C101.944023,52.931316 101.874207,69.598206 101.874504,86.264687 
	C101.874535,88.016327 101.874504,89.767967 101.874504,91.206436 
	C106.544640,91.206436 110.494759,91.206436 114.592201,91.206436 
	C114.634163,91.057274 114.882935,90.584160 114.883751,90.110626 
	C114.916054,71.278084 115.283867,52.436157 114.792686,33.616730 
	C114.533997,23.704821 110.389397,15.204117 101.192665,10.069293 
	C90.401184,4.044072 77.137299,6.089279 65.630302,15.507750 
	C55.832825,6.012795 44.249599,4.197227 32.108677,9.338964 
	C20.165251,14.397062 16.651306,24.856897 16.831413,37.169804 
	C17.058088,52.666317 16.886045,68.168663 16.886045,83.668495 
	C16.886045,86.290070 16.886045,88.911636 16.886045,91.219360 
	C21.549479,91.219360 25.602631,91.219360 29.977882,91.219360 
	C29.977882,89.259949 29.977882,87.277901 29.977884,84.345039 
M75.349396,92.315155 
	C74.419014,91.164589 73.643639,89.829391 72.531319,88.895538 
	C67.807549,84.929657 60.820461,85.777954 57.133396,90.649529 
	C53.436329,95.534317 54.524807,102.437103 59.550514,105.978142 
	C64.561119,109.508522 71.908203,108.411385 74.602409,102.948280 
	C75.992439,100.129707 75.395058,96.331017 75.349396,92.315155 
M97.593330,108.303787 
	C99.180420,115.766235 104.551178,119.645874 110.988457,117.979919 
	C116.831985,116.467636 120.201332,110.105400 118.252991,104.262527 
	C116.734856,99.709778 112.416641,96.840721 107.509903,97.124733 
	C101.999626,97.443680 98.751213,100.836014 97.593330,108.303787 
M33.822857,106.734184 
	C33.144787,101.519218 30.193245,98.224342 25.092516,97.267174 
	C20.645468,96.432671 16.856367,98.029510 14.396163,101.906654 
	C11.848294,105.921974 11.945937,110.106651 14.734396,113.980537 
	C17.569330,117.918953 21.705294,119.147308 26.174398,117.861015 
	C31.117483,116.438286 33.740807,112.784737 33.822857,106.734184 
z"/>
<path fill="#FFFDFC" opacity="1.000000" stroke="none" 
	d="
M29.977882,84.820450 
	C29.977882,87.277901 29.977882,89.259949 29.977882,91.219360 
	C25.602631,91.219360 21.549479,91.219360 16.886045,91.219360 
	C16.886045,88.911636 16.886045,86.290070 16.886045,83.668495 
	C16.886045,68.168663 17.058088,52.666317 16.831413,37.169804 
	C16.651306,24.856897 20.165251,14.397062 32.108677,9.338964 
	C44.249599,4.197227 55.832825,6.012795 65.630302,15.507750 
	C77.137299,6.089279 90.401184,4.044072 101.192665,10.069293 
	C110.389397,15.204117 114.533997,23.704821 114.792686,33.616730 
	C115.283867,52.436157 114.916054,71.278084 114.883751,90.110626 
	C114.882935,90.584160 114.634163,91.057274 114.592201,91.206436 
	C110.494759,91.206436 106.544640,91.206436 101.874504,91.206436 
	C101.874504,89.767967 101.874535,88.016327 101.874504,86.264687 
	C101.874207,69.598206 101.944023,52.931316 101.849167,36.265369 
	C101.785027,24.995802 95.599686,19.043777 85.208328,19.953558 
	C78.620323,20.530346 74.042725,24.476646 72.916443,31.020052 
	C72.356125,34.275349 72.257065,37.638039 72.238922,40.953732 
	C72.166977,54.100574 72.209335,67.248047 72.209335,80.547729 
	C67.864975,80.547729 63.827770,80.547729 59.154301,80.547729 
	C59.154301,78.638542 59.154663,76.537125 59.154243,74.435699 
	C59.151669,61.435856 59.283886,48.434124 59.101952,35.436787 
	C58.965359,25.678654 53.894600,20.221008 45.219814,19.889101 
	C35.824989,19.529648 30.078739,24.844248 30.013420,34.345581 
	C29.898848,51.011360 29.979189,67.678482 29.977882,84.820450 
z"/>
<path fill="#FEFBF9" opacity="1.000000" stroke="none" 
	d="
M75.522530,92.645164 
	C75.395058,96.331017 75.992439,100.129707 74.602409,102.948280 
	C71.908203,108.411385 64.561119,109.508522 59.550514,105.978142 
	C54.524807,102.437103 53.436329,95.534317 57.133396,90.649529 
	C60.820461,85.777954 67.807549,84.929657 72.531319,88.895538 
	C73.643639,89.829391 74.419014,91.164589 75.522530,92.645164 
z"/>
<path fill="#FEFBFA" opacity="1.000000" stroke="none" 
	d="
M97.555183,107.932060 
	C98.751213,100.836014 101.999626,97.443680 107.509903,97.124733 
	C112.416641,96.840721 116.734856,99.709778 118.252991,104.262527 
	C120.201332,110.105400 116.831985,116.467636 110.988457,117.979919 
	C104.551178,119.645874 99.180420,115.766235 97.555183,107.932060 
z"/>
<path fill="#FEFBF9" opacity="1.000000" stroke="none" 
	d="
M33.850914,107.130295 
	C33.740807,112.784737 31.117483,116.438286 26.174398,117.861015 
	C21.705294,119.147308 17.569330,117.918953 14.734396,113.980537 
	C11.945937,110.106651 11.848294,105.921974 14.396163,101.906654 
	C16.856367,98.029510 20.645468,96.432671 25.092516,97.267174 
	C30.193245,98.224342 33.144787,101.519218 33.850914,107.130295 
z"/>
</svg>