<svg fill="none" height="310" viewBox="0 0 310 310" width="310" xmlns="http://www.w3.org/2000/svg">
<path d="M0 0 C1.14621319 0.85451938 2.29082168 1.71119665 3.43359375 2.5703125 C6.07763803 4.51786072 8.7153414 6.24653172 11.5625 7.875 C12.51125 7.215 13.46 6.555 14.4375 5.875 C17.5625 3.875 17.5625 3.875 19.5625 3.875 C19.5625 3.215 19.5625 2.555 19.5625 1.875 C42.44112552 -10.84563929 64.61558796 -16.69786434 90.5625 -10.125 C99.40630589 -7.35540954 106.32067186 -2.81841094 113.5625 2.875 C114.325625 3.40867187 115.08875 3.94234375 115.875 4.4921875 C116.431875 4.94851562 116.98875 5.40484375 117.5625 5.875 C117.5625 6.535 117.5625 7.195 117.5625 7.875 C118.2225 7.875 118.8825 7.875 119.5625 7.875 C121.2890625 9.73828125 121.2890625 9.73828125 123.1875 12.1875 C123.81914062 12.98800781 124.45078125 13.78851563 125.1015625 14.61328125 C126.5625 16.875 126.5625 16.875 126.5625 19.875 C127.2225 19.875 127.8825 19.875 128.5625 19.875 C129.35691072 21.74883903 130.14789974 23.62412886 130.9375 25.5 C131.37835938 26.54414062 131.81921875 27.58828125 132.2734375 28.6640625 C137.16507561 40.84868834 137.88350315 53.42213753 138.1875 66.4375 C138.2150235 67.50754776 138.2150235 67.50754776 138.24310303 68.59921265 C139.16635215 105.25574981 138.76752508 141.96661593 138.125 178.625 C138.1054425 179.80736237 138.08588501 180.98972473 138.06573486 182.20791626 C138.00935838 185.50854776 137.94570493 188.80893986 137.87890625 192.109375 C137.86218369 193.09167587 137.84546112 194.07397675 137.82823181 195.08604431 C137.80829666 195.9725618 137.78836151 196.85907928 137.76782227 197.77246094 C137.75227798 198.54555603 137.7367337 199.31865112 137.72071838 200.11517334 C137.5625 201.875 137.5625 201.875 136.5625 202.875 C133.96890678 202.96351529 131.40210309 202.99025945 128.80859375 202.97265625 C128.03314713 202.9712413 127.2577005 202.96982635 126.45875549 202.96836853 C123.97246506 202.96275345 121.4862634 202.95019846 119 202.9375 C117.31836067 202.93248694 115.63671994 202.9279237 113.95507812 202.92382812 C109.82418434 202.91277913 105.69335724 202.89550445 101.5625 202.875 C101.56011165 202.10085062 101.55772329 201.32670124 101.55526257 200.52909279 C101.49604666 181.66534045 101.42045447 162.80171821 101.32678509 143.93810463 C101.28187883 134.81568179 101.2424523 125.69329754 101.21606445 116.57080078 C101.19304244 108.61675856 101.15959762 100.662839 101.11379844 92.70889413 C101.08992277 88.49993806 101.07115702 84.29110302 101.06488609 80.08208084 C101.05880952 76.11427785 101.03871766 72.14678433 101.00822449 68.17909622 C100.99948526 66.72879186 100.99571308 65.27844698 100.99749184 63.82811737 C101.00743863 51.96763015 99.85883359 43.34051385 92.5625 33.875 C92.5625 33.215 92.5625 32.555 92.5625 31.875 C92.00433594 31.60945313 91.44617188 31.34390625 90.87109375 31.0703125 C88.5625 29.875 88.5625 29.875 86.28515625 28.3671875 C75.84145772 22.01815491 63.49942874 22.00168763 51.7890625 24.765625 C44.631442 27.47001562 38.92850984 31.37435669 35.32421875 38.23046875 C31.29039728 47.69161366 30.26372406 56.7918575 30.24365234 67.00415039 C30.23360672 68.18564667 30.2235611 69.36714294 30.21321106 70.58444214 C30.18248429 74.4638422 30.16537295 78.34317357 30.1484375 82.22265625 C30.13079205 84.92265785 30.11023821 87.62263523 30.0897522 90.32261658 C30.04312241 96.68653307 30.00630231 103.0504663 29.97307932 109.41446537 C29.93474568 116.66489266 29.88536531 123.91523186 29.83509517 131.16558468 C29.73201055 146.06866378 29.64413236 160.97178506 29.5625 175.875 C17.3525 175.875 5.1425 175.875 -7.4375 175.875 C-7.46255615 172.2869751 -7.4876123 168.6989502 -7.51342773 165.00219727 C-7.59697435 153.13581132 -7.68560366 141.26946703 -7.77683926 129.40313816 C-7.83202132 122.20993676 -7.88547786 115.0167304 -7.93481445 107.82348633 C-7.97784108 101.55087872 -8.02416419 95.27830541 -8.07437855 89.00575107 C-8.10083153 85.68720466 -8.12518754 82.36866474 -8.14657402 79.05008125 C-8.17077996 75.33745758 -8.20081169 71.62492266 -8.23217773 67.91235352 C-8.2379332 66.82262238 -8.24368866 65.73289124 -8.24961853 64.61013794 C-8.36574007 52.48565157 -9.24530775 42.00401838 -17.5546875 32.4375 C-25.43683982 25.0190037 -32.84220397 23.35819763 -43.375 23.4375 C-44.31279297 23.41751953 -45.25058594 23.39753906 -46.21679688 23.37695312 C-55.62296998 23.38348973 -62.75615444 26.43284563 -69.64453125 32.8125 C-75.62048848 39.68680374 -77.54456988 47.37759699 -77.59571838 56.28474426 C-77.61040161 58.2261026 -77.61040161 58.2261026 -77.62538147 60.2066803 C-77.63128492 61.63363611 -77.63709541 63.0605923 -77.64282227 64.48754883 C-77.65240623 65.99565903 -77.66241662 67.50376657 -77.67282104 69.01187134 C-77.69981999 73.10027081 -77.72085663 77.18868177 -77.74082303 81.27712083 C-77.76271353 85.55193049 -77.79008722 89.82670496 -77.81687927 94.10148621 C-77.86676475 102.19384895 -77.91171894 110.28623127 -77.95490164 118.37863225 C-78.00430946 127.59262272 -78.05921443 136.80657787 -78.11458123 146.02053416 C-78.22833764 164.97199142 -78.3344648 183.92348121 -78.4375 202.875 C-90.3175 202.875 -102.1975 202.875 -114.4375 202.875 C-114.50538822 182.92456773 -114.56058111 162.97422991 -114.59293652 143.0237112 C-114.60836327 133.75901065 -114.62937202 124.4943873 -114.66381836 115.22973633 C-114.69384973 107.14863548 -114.71310541 99.06759058 -114.71976548 90.98643547 C-114.72365462 86.71299275 -114.73270575 82.43971001 -114.75469017 78.16631889 C-114.77527317 74.1321002 -114.78129048 70.09810518 -114.77682304 66.06383896 C-114.77763861 64.5946372 -114.78347302 63.12542682 -114.79511642 61.65627098 C-114.91669657 45.50317282 -111.99272453 31.2299266 -104.4375 16.875 C-103.7775 16.875 -103.1175 16.875 -102.4375 16.875 C-102.4375 15.885 -102.4375 14.895 -102.4375 13.875 C-101.7775 13.875 -101.1175 13.875 -100.4375 13.875 C-100.18484375 13.2975 -99.9321875 12.72 -99.671875 12.125 C-96.37273219 6.1113726 -90.29192936 1.2525554 -84.4375 -2.125 C-83.62023437 -2.59679688 -82.80296875 -3.06859375 -81.9609375 -3.5546875 C-73.74272487 -8.00714232 -65.50083059 -10.18923936 -56.4375 -12.125 C-55.64214844 -12.31964844 -54.84679687 -12.51429687 -54.02734375 -12.71484375 C-34.87424996 -15.74813915 -15.64086174 -11.35631314 0 0 Z " fill="#FF0015" transform="translate(138.4375,28.125)"/>
<path d="M0 0 C3.67418099 2.1594938 6.60045077 4.54832444 9.375 7.8125 C10.06851563 8.46734375 10.76203125 9.1221875 11.4765625 9.796875 C14.30277985 14.28625729 13.95817034 18.36435405 13.875 23.5625 C13.89046875 24.51382813 13.9059375 25.46515625 13.921875 26.4453125 C13.87449117 35.09286103 11.50243489 42.49938526 5.375 48.8125 C-1.57211989 54.02283992 -10.24145417 54.58693312 -18.625 53.8125 C-21.5379334 53.1867977 -23.98625525 52.18422842 -26.625 50.8125 C-27.3778125 50.43351562 -28.130625 50.05453125 -28.90625 49.6640625 C-35.4820231 45.87203335 -39.32749669 41.06914253 -41.625 33.8125 C-42.81496538 26.35876738 -42.94951369 17.96880845 -38.8203125 11.4140625 C-38.42585938 10.88554687 -38.03140625 10.35703125 -37.625 9.8125 C-36.861875 8.74 -36.09875 7.6675 -35.3125 6.5625 C-26.28046505 -2.67958228 -11.79611524 -5.64084909 0 0 Z " fill="#FF0015" transform="translate(162.625,220.1875)"/>
<path d="M0 0 C0.54785156 0.28875 1.09570312 0.5775 1.66015625 0.875 C1.66015625 1.535 1.66015625 2.195 1.66015625 2.875 C2.21703125 3.060625 2.77390625 3.24625 3.34765625 3.4375 C9.07365668 6.99690567 11.54983723 13.05505367 13.22265625 19.328125 C14.40039622 26.1842541 12.63696702 32.69336742 9.66015625 38.875 C9.36753906 39.4834375 9.07492188 40.091875 8.7734375 40.71875 C5.16256626 46.83978081 -0.71324597 49.81772291 -7.33984375 51.875 C-14.98727478 53.17866335 -23.00153101 53.2151821 -29.96484375 49.5 C-36.30984726 44.93073126 -41.88124639 37.65418593 -43.33984375 29.875 C-44.24162925 20.02215837 -41.65967201 12.98810766 -36.08984375 4.92578125 C-27.14789502 -5.55306492 -11.68970812 -5.47420478 0 0 Z " fill="#FF0015" transform="translate(56.33984375,248.125)"/>
<path d="M0 0 C6.01366506 5.63566325 9.10897985 13.58338621 9.375 21.6875 C8.93085374 30.32252961 5.87980481 36.87019519 -0.25 43 C-8.96322806 49.30427677 -16.78896411 49.70222156 -27.25 49 C-35.47130402 47.13667229 -40.69421441 39.79245604 -45.1875 33.125 C-47.64022146 25.91111337 -48.24327932 18.11584128 -45.25 11 C-41.28748924 3.13465484 -37.33144331 -2.50237502 -28.6796875 -5.45703125 C-17.99293399 -7.84522858 -9.11775604 -5.6109268 0 0 Z " fill="#FF0015" transform="translate(277.25,251)"/>
</svg>
